<svg width="24" height="24" viewBox="0 0 24 24" fill="none" xmlns="http://www.w3.org/2000/svg">
<g clip-path="url(#clip0_51_111)">
<path d="M23.5377 0.619068C23.3693 0.450312 23.1693 0.316427 22.9491 0.225078C22.7289 0.133728 22.4928 0.0867075 22.2544 0.0867075C22.016 0.0867075 21.7799 0.133728 21.5597 0.225078C21.3395 0.316427 21.1394 0.450312 20.971 0.619068L12.0693 9.50254L3.16767 0.600864C2.99913 0.432329 2.79905 0.29864 2.57885 0.20743C2.35865 0.11622 2.12264 0.0692749 1.8843 0.0692749C1.64595 0.0692749 1.40994 0.11622 1.18974 0.20743C0.969539 0.29864 0.769459 0.432329 0.600925 0.600864C0.43239 0.769398 0.298701 0.969478 0.207491 1.18968C0.116281 1.40988 0.0693359 1.64589 0.0693359 1.88423C0.0693359 2.12258 0.116281 2.35859 0.207491 2.57879C0.298701 2.79899 0.43239 2.99907 0.600925 3.1676L9.5026 12.0693L0.600925 20.9709C0.43239 21.1395 0.298701 21.3396 0.207491 21.5598C0.116281 21.78 0.0693359 22.016 0.0693359 22.2543C0.0693359 22.4927 0.116281 22.7287 0.207491 22.9489C0.298701 23.1691 0.43239 23.3692 0.600925 23.5377C0.769459 23.7062 0.969539 23.8399 1.18974 23.9311C1.40994 24.0223 1.64595 24.0693 1.8843 24.0693C2.12264 24.0693 2.35865 24.0223 2.57885 23.9311C2.79905 23.8399 2.99913 23.7062 3.16767 23.5377L12.0693 14.636L20.971 23.5377C21.1395 23.7062 21.3396 23.8399 21.5598 23.9311C21.78 24.0223 22.016 24.0693 22.2544 24.0693C22.4927 24.0693 22.7287 24.0223 22.9489 23.9311C23.1691 23.8399 23.3692 23.7062 23.5377 23.5377C23.7063 23.3692 23.84 23.1691 23.9312 22.9489C24.0224 22.7287 24.0693 22.4927 24.0693 22.2543C24.0693 22.016 24.0224 21.78 23.9312 21.5598C23.84 21.3396 23.7063 21.1395 23.5377 20.9709L14.6361 12.0693L23.5377 3.1676C24.2295 2.47586 24.2295 1.31081 23.5377 0.619068Z" fill="#222222"/>
</g>
<defs>
<clipPath id="clip0_51_111">
<rect width="24" height="24" fill="white"/>
</clipPath>
</defs>
</svg>
