<svg width="24" height="24" viewBox="0 0 24 24" fill="none" xmlns="http://www.w3.org/2000/svg">
<path fill-rule="evenodd" clip-rule="evenodd" d="M13.2768 13.4638C12.9381 13.8071 12.4789 14 12 14C11.5211 14 11.0619 13.8071 10.7232 13.4638L0.506953 3.10366C0.177985 2.75826 -0.00404413 2.29565 7.06189e-05 1.81547C0.00418537 1.33528 0.194116 0.87595 0.528954 0.536397C0.863791 0.196844 1.31675 0.00423998 1.79026 6.73621e-05C2.26377 -0.00410525 2.71996 0.180488 3.06056 0.514089L12 9.57943L20.9394 0.51409C21.28 0.180489 21.7362 -0.00410355 22.2097 6.91472e-05C22.6833 0.00424185 23.1362 0.196846 23.4711 0.536399C23.8059 0.875952 23.9958 1.33529 23.9999 1.81547C24.004 2.29565 23.822 2.75826 23.4931 3.10367L13.2768 13.4638Z" fill="#A5A5A5"/>
</svg>
