<svg width="26" height="26" viewBox="0 0 26 26" fill="none" xmlns="http://www.w3.org/2000/svg">
<path d="M25.6015 23.3902L19.7074 17.4961C21.1265 15.6071 21.8925 13.3076 21.8899 10.945C21.8899 4.90995 16.98 0 10.945 0C4.90995 0 0 4.90995 0 10.945C0 16.98 4.90995 21.8899 10.945 21.8899C13.3076 21.8925 15.6071 21.1265 17.4961 19.7074L23.3902 25.6015C23.6886 25.8682 24.0777 26.0106 24.4777 25.9994C24.8778 25.9882 25.2583 25.8243 25.5413 25.5413C25.8243 25.2583 25.9882 24.8778 25.9994 24.4777C26.0106 24.0777 25.8682 23.6886 25.6015 23.3902ZM3.12713 10.945C3.12713 9.39874 3.58564 7.88724 4.44467 6.60161C5.30371 5.31597 6.52468 4.31394 7.95321 3.72223C9.38173 3.13052 10.9536 2.9757 12.4701 3.27735C13.9867 3.579 15.3797 4.32358 16.473 5.41692C17.5663 6.51026 18.3109 7.90327 18.6126 9.41978C18.9142 10.9363 18.7594 12.5082 18.1677 13.9367C17.576 15.3652 16.5739 16.5862 15.2883 17.4452C14.0027 18.3043 12.4912 18.7628 10.945 18.7628C8.87231 18.7603 6.88526 17.9358 5.41967 16.4703C3.95408 15.0047 3.12962 13.0176 3.12713 10.945Z" fill="#222222"/>
</svg>
